<svg width="30" height="30" viewBox="0 0 30 30" fill="none" xmlns="http://www.w3.org/2000/svg">
<rect width="30" height="30" rx="15" fill="#434343"/>
<path d="M15.4305 14.0462C15.411 13.9387 15.352 13.8423 15.265 13.7761C15.178 13.7099 15.0693 13.6786 14.9605 13.6885C14.8516 13.6984 14.7504 13.7486 14.6767 13.8294C14.603 13.9102 14.5623 14.0157 14.5625 14.125V18.0642L14.5695 18.143C14.589 18.2506 14.648 18.347 14.735 18.4132C14.822 18.4794 14.9307 18.5106 15.0395 18.5008C15.1484 18.4909 15.2496 18.4406 15.3233 18.3598C15.397 18.279 15.4377 18.1736 15.4375 18.0642V14.125L15.4305 14.0462ZM15.6991 12.1562C15.6991 11.9822 15.63 11.8153 15.5069 11.6922C15.3838 11.5691 15.2169 11.5 15.0429 11.5C14.8688 11.5 14.7019 11.5691 14.5788 11.6922C14.4558 11.8153 14.3866 11.9822 14.3866 12.1562C14.3866 12.3303 14.4558 12.4972 14.5788 12.6203C14.7019 12.7434 14.8688 12.8125 15.0429 12.8125C15.2169 12.8125 15.3838 12.7434 15.5069 12.6203C15.63 12.4972 15.6991 12.3303 15.6991 12.1562ZM22 15C22 13.1435 21.2625 11.363 19.9497 10.0503C18.637 8.7375 16.8565 8 15 8C13.1435 8 11.363 8.7375 10.0503 10.0503C8.7375 11.363 8 13.1435 8 15C8 16.8565 8.7375 18.637 10.0503 19.9497C11.363 21.2625 13.1435 22 15 22C16.8565 22 18.637 21.2625 19.9497 19.9497C21.2625 18.637 22 16.8565 22 15ZM8.875 15C8.875 14.1957 9.03343 13.3992 9.34124 12.6561C9.64905 11.9129 10.1002 11.2377 10.669 10.669C11.2377 10.1002 11.9129 9.64905 12.6561 9.34124C13.3992 9.03343 14.1957 8.875 15 8.875C15.8043 8.875 16.6008 9.03343 17.3439 9.34124C18.0871 9.64905 18.7623 10.1002 19.331 10.669C19.8998 11.2377 20.351 11.9129 20.6588 12.6561C20.9666 13.3992 21.125 14.1957 21.125 15C21.125 16.6245 20.4797 18.1824 19.331 19.331C18.1824 20.4797 16.6245 21.125 15 21.125C13.3755 21.125 11.8176 20.4797 10.669 19.331C9.52031 18.1824 8.875 16.6245 8.875 15Z" fill="white"/>
</svg>
